<?xml version="1.0" standalone="no"?>
<!DOCTYPE svg PUBLIC "-//W3C//DTD SVG 20010904//EN"
 "http://www.w3.org/TR/2001/REC-SVG-20010904/DTD/svg10.dtd">
<svg version="1.0" xmlns="http://www.w3.org/2000/svg"
 width="300.000000pt" height="300.000000pt" viewBox="0 0 300.000000 300.000000"
 preserveAspectRatio="xMidYMid meet">
<metadata>
Created by potrace 1.11, written by Peter Selinger 2001-2013
</metadata>
<g transform="translate(0.000000,300.000000) scale(0.100000,-0.100000)"
fill="#000000" stroke="none">
<path d="M735 2325 c-42 -20 -59 -35 -78 -72 -31 -59 -16 -138 40 -210 31 -40
83 -127 84 -140 1 -5 7 -23 15 -42 13 -31 39 -114 43 -136 1 -5 4 -19 6 -30
18 -84 25 -293 13 -375 -17 -116 -23 -141 -47 -217 -24 -76 -63 -154 -108
-217 -64 -90 -78 -155 -48 -220 22 -46 90 -87 140 -85 36 2 112 31 125 48 18
22 133 84 215 114 121 44 219 60 385 60 119 1 217 -9 259 -24 13 -5 26 -8 28
-5 6 5 102 -29 172 -60 29 -14 87 -47 128 -74 104 -69 154 -76 225 -32 57 35
79 94 65 174 -2 9 -27 54 -57 100 -29 46 -63 106 -76 133 -28 64 -66 189 -70
235 -5 47 -12 95 -14 95 -9 0 3 279 14 335 13 64 29 126 35 135 3 6 6 15 7 21
2 14 32 83 45 104 5 8 12 22 16 30 3 8 21 36 40 61 48 67 74 130 61 146 -7 9
-7 13 0 13 17 0 -9 68 -37 96 -47 47 -76 55 -168 45 -6 0 -42 -22 -80 -48
-122 -84 -259 -135 -423 -160 -46 -6 -285 -7 -330 -1 -69 10 -156 30 -200 45
-59 20 -191 84 -208 100 -59 56 -161 83 -217 58z"/>
</g>
</svg>
